<?xml version="1.0" encoding="UTF-8"?>
<svg width="120px" height="73px" viewBox="0 0 120 73" version="1.1" xmlns="http://www.w3.org/2000/svg" xmlns:xlink="http://www.w3.org/1999/xlink">
    <!-- Generator: Sketch 52.2 (67145) - http://www.bohemiancoding.com/sketch -->
    <title>logo</title>
    <desc>Created with Sketch.</desc>
    <g id="logo" stroke="none" stroke-width="1" fill="none" fill-rule="evenodd">
        <path d="M27.716,28.444 L29.484,28.444 C30.0733363,28.444 30.5946644,28.2003358 31.048,27.713 C31.5013356,27.2256642 31.728,26.4720051 31.728,25.452 C31.728,24.4999952 31.5013356,23.7746692 31.048,23.276 C30.5946644,22.7773308 30.0733363,22.528 29.484,22.528 L27.716,22.528 L27.716,28.444 Z M27.716,18.244 L29.246,18.244 C29.9033366,18.244 30.4019983,18.0003358 30.742,17.513 C31.0820017,17.0256642 31.252,16.4533366 31.252,15.796 C31.252,15.1159966 31.0820017,14.5266692 30.742,14.028 C30.4019983,13.5293308 29.9033366,13.28 29.246,13.28 L27.716,13.28 L27.716,18.244 Z M21.392,8.724 L30.946,8.724 C33.212678,8.724 34.8843279,9.27366117 35.961,10.373 C37.037672,11.4723388 37.576,12.9399908 37.576,14.776 C37.576,15.4106698 37.5023341,16.0283303 37.355,16.629 C37.2076659,17.2296697 36.9810015,17.7736642 36.675,18.261 C36.3689985,18.7483358 35.9780024,19.1619983 35.502,19.502 C35.0259976,19.8420017 34.4480034,20.0799993 33.768,20.216 L33.768,20.284 C34.5613373,20.3520003 35.2413305,20.5616649 35.808,20.913 C36.3746695,21.2643351 36.8393315,21.7006641 37.202,22.222 C37.5646685,22.7433359 37.8309991,23.3156636 38.001,23.939 C38.1710008,24.5623365 38.256,25.1913302 38.256,25.826 C38.256,26.8686719 38.1200014,27.8319956 37.848,28.716 C37.5759986,29.6000044 37.1510029,30.3593302 36.573,30.994 C35.9949971,31.6286698 35.241338,32.1216649 34.312,32.473 C33.382662,32.8243351 32.2606732,33 30.946,33 L21.392,33 L21.392,8.724 Z M50.126,13.688 L48.392,23.99 L51.928,23.99 L50.194,13.688 L50.126,13.688 Z M54.138,8.724 L60.054,33 L53.322,33 L52.676,28.75 L47.644,28.75 L46.998,33 L40.368,33 L46.182,8.724 L54.138,8.724 Z M69.136,28.444 L70.904,28.444 C71.4933363,28.444 72.0146644,28.2003358 72.468,27.713 C72.9213356,27.2256642 73.148,26.4720051 73.148,25.452 C73.148,24.4999952 72.9213356,23.7746692 72.468,23.276 C72.0146644,22.7773308 71.4933363,22.528 70.904,22.528 L69.136,22.528 L69.136,28.444 Z M69.136,18.244 L70.666,18.244 C71.3233366,18.244 71.8219983,18.0003358 72.162,17.513 C72.5020017,17.0256642 72.672,16.4533366 72.672,15.796 C72.672,15.1159966 72.5020017,14.5266692 72.162,14.028 C71.8219983,13.5293308 71.3233366,13.28 70.666,13.28 L69.136,13.28 L69.136,18.244 Z M62.812,8.724 L72.366,8.724 C74.632678,8.724 76.304328,9.27366117 77.381,10.373 C78.457672,11.4723388 78.996,12.9399908 78.996,14.776 C78.996,15.4106698 78.9223341,16.0283303 78.775,16.629 C78.6276659,17.2296697 78.4010015,17.7736642 78.095,18.261 C77.7889985,18.7483358 77.3980024,19.1619983 76.922,19.502 C76.4459976,19.8420017 75.8680034,20.0799993 75.188,20.216 L75.188,20.284 C75.9813373,20.3520003 76.6613305,20.5616649 77.228,20.913 C77.7946695,21.2643351 78.2593315,21.7006641 78.622,22.222 C78.9846685,22.7433359 79.2509991,23.3156636 79.421,23.939 C79.5910009,24.5623365 79.676,25.1913302 79.676,25.826 C79.676,26.8686719 79.5400014,27.8319956 79.268,28.716 C78.9959986,29.6000044 78.5710029,30.3593302 77.993,30.994 C77.4149971,31.6286698 76.661338,32.1216649 75.732,32.473 C74.802662,32.8243351 73.6806732,33 72.366,33 L62.812,33 L62.812,8.724 Z M87.806,23.446 L81.72,8.724 L88.554,8.724 L90.934,17.19 L91.002,17.19 L93.382,8.724 L100.318,8.724 L94.13,23.446 L94.13,33 L87.806,33 L87.806,23.446 Z" id="Baby" fill="#101111"></path>
        <path d="M3.165,45.58 L13.245,45.58 C15.2850102,45.58 16.8799943,46.079995 18.03,47.08 C19.1800058,48.080005 19.755,49.4499913 19.755,51.19 C19.755,52.4900065 19.460003,53.6299951 18.87,54.61 C18.2799971,55.5900049 17.3350065,56.2599982 16.035,56.62 L16.035,56.68 C16.6550031,56.8000006 17.1599981,56.9999986 17.55,57.28 C17.940002,57.5600014 18.2499988,57.894998 18.48,58.285 C18.7100012,58.675002 18.8799995,59.1099976 18.99,59.59 C19.1000005,60.0700024 19.1849997,60.5699974 19.245,61.09 C19.2850002,61.6100026 19.3149999,62.1399973 19.335,62.68 C19.3550001,63.2200027 19.4049996,63.7499974 19.485,64.27 C19.5650004,64.7900026 19.6799993,65.2849977 19.83,65.755 C19.9800008,66.2250023 20.2049985,66.6399982 20.505,67 L17.325,67 C17.124999,66.7799989 16.9900004,66.4800019 16.92,66.1 C16.8499997,65.7199981 16.8050001,65.2950024 16.785,64.825 C16.7649999,64.3549977 16.7450001,63.8500027 16.725,63.31 C16.7049999,62.7699973 16.6450005,62.2400026 16.545,61.72 C16.4649996,61.1999974 16.3650006,60.7050024 16.245,60.235 C16.1249994,59.7649976 15.9350013,59.3550017 15.675,59.005 C15.4149987,58.6549983 15.0750021,58.3750011 14.655,58.165 C14.2349979,57.954999 13.6750035,57.85 12.975,57.85 L6.015,57.85 L6.015,67 L3.165,67 L3.165,45.58 Z M11.955,55.45 C12.6150033,55.45 13.244997,55.4000005 13.845,55.3 C14.445003,55.1999995 14.9699978,55.0050014 15.42,54.715 C15.8700023,54.4249985 16.2299987,54.0350025 16.5,53.545 C16.7700014,53.0549976 16.905,52.4200039 16.905,51.64 C16.905,50.5599946 16.605003,49.6800034 16.005,49 C15.404997,48.3199966 14.4350067,47.98 13.095,47.98 L6.015,47.98 L6.015,55.45 L11.955,55.45 Z M23.715,45.58 L38.505,45.58 L38.505,47.98 L26.565,47.98 L26.565,54.79 L37.695,54.79 L37.695,57.19 L26.565,57.19 L26.565,64.6 L38.595,64.6 L38.595,67 L23.715,67 L23.715,45.58 Z M44.895,55.84 L50.475,55.84 C52.0950081,55.8600001 53.2799963,55.5300034 54.03,54.85 C54.7800038,54.1699966 55.155,53.1900064 55.155,51.91 C55.155,50.6299936 54.7800038,49.6550034 54.03,48.985 C53.2799963,48.3149966 52.0950081,47.98 50.475,47.98 L44.895,47.98 L44.895,55.84 Z M42.045,45.58 L51.435,45.58 C53.5950108,45.58 55.2299945,46.1349945 56.34,47.245 C57.4500056,48.3550056 58.005,49.90999 58.005,51.91 C58.005,53.91001 57.4500056,55.4699944 56.34,56.59 C55.2299945,57.7100056 53.5950108,58.2600001 51.435,58.24 L44.895,58.24 L44.895,67 L42.045,67 L42.045,45.58 Z M63.135,56.29 C63.135,57.3700054 63.2749986,58.4349948 63.555,59.485 C63.8350014,60.5350052 64.274997,61.4799958 64.875,62.32 C65.475003,63.1600042 66.2449953,63.8349975 67.185,64.345 C68.1250047,64.8550025 69.2449935,65.11 70.545,65.11 C71.8450065,65.11 72.9649953,64.8550025 73.905,64.345 C74.8450047,63.8349975 75.614997,63.1600042 76.215,62.32 C76.815003,61.4799958 77.2549986,60.5350052 77.535,59.485 C77.8150014,58.4349948 77.955,57.3700054 77.955,56.29 C77.955,55.2099946 77.8150014,54.1450052 77.535,53.095 C77.2549986,52.0449948 76.815003,51.1000042 76.215,50.26 C75.614997,49.4199958 74.8450047,48.7450025 73.905,48.235 C72.9649953,47.7249975 71.8450065,47.47 70.545,47.47 C69.2449935,47.47 68.1250047,47.7249975 67.185,48.235 C66.2449953,48.7450025 65.475003,49.4199958 64.875,50.26 C64.274997,51.1000042 63.8350014,52.0449948 63.555,53.095 C63.2749986,54.1450052 63.135,55.2099946 63.135,56.29 Z M60.285,56.29 C60.285,54.8299927 60.4999978,53.4250068 60.93,52.075 C61.3600021,50.7249932 62.0049957,49.5300052 62.865,48.49 C63.7250043,47.4499948 64.7949936,46.6200031 66.075,46 C67.3550064,45.3799969 68.8449915,45.07 70.545,45.07 C72.2450085,45.07 73.7349936,45.3799969 75.015,46 C76.2950064,46.6200031 77.3649957,47.4499948 78.225,48.49 C79.0850043,49.5300052 79.7299979,50.7249932 80.16,52.075 C80.5900022,53.4250068 80.805,54.8299927 80.805,56.29 C80.805,57.7500073 80.5900022,59.1549933 80.16,60.505 C79.7299979,61.8550068 79.0850043,63.0499948 78.225,64.09 C77.3649957,65.1300052 76.2950064,65.954997 75.015,66.565 C73.7349936,67.1750031 72.2450085,67.48 70.545,67.48 C68.8449915,67.48 67.3550064,67.1750031 66.075,66.565 C64.7949936,65.954997 63.7250043,65.1300052 62.865,64.09 C62.0049957,63.0499948 61.3600021,61.8550068 60.93,60.505 C60.4999978,59.1549933 60.285,57.7500073 60.285,56.29 Z M84.285,45.58 L94.365,45.58 C96.4050102,45.58 97.9999943,46.079995 99.15,47.08 C100.300006,48.080005 100.875,49.4499913 100.875,51.19 C100.875,52.4900065 100.580003,53.6299951 99.99,54.61 C99.399997,55.5900049 98.4550065,56.2599982 97.155,56.62 L97.155,56.68 C97.7750031,56.8000006 98.279998,56.9999986 98.67,57.28 C99.0600019,57.5600014 99.3699989,57.894998 99.6,58.285 C99.8300011,58.675002 99.9999994,59.1099976 100.11,59.59 C100.220001,60.0700024 100.305,60.5699974 100.365,61.09 C100.405,61.6100026 100.435,62.1399973 100.455,62.68 C100.475,63.2200027 100.525,63.7499974 100.605,64.27 C100.685,64.7900026 100.799999,65.2849977 100.95,65.755 C101.100001,66.2250023 101.324998,66.6399982 101.625,67 L98.445,67 C98.244999,66.7799989 98.1100003,66.4800019 98.04,66.1 C97.9699996,65.7199981 97.9250001,65.2950024 97.905,64.825 C97.8849999,64.3549977 97.8650001,63.8500027 97.845,63.31 C97.8249999,62.7699973 97.7650005,62.2400026 97.665,61.72 C97.5849996,61.1999974 97.4850006,60.7050024 97.365,60.235 C97.2449994,59.7649976 97.0550013,59.3550017 96.795,59.005 C96.5349987,58.6549983 96.1950021,58.3750011 95.775,58.165 C95.3549979,57.954999 94.7950035,57.85 94.095,57.85 L87.135,57.85 L87.135,67 L84.285,67 L84.285,45.58 Z M93.075,55.45 C93.7350033,55.45 94.364997,55.4000005 94.965,55.3 C95.565003,55.1999995 96.0899977,55.0050014 96.54,54.715 C96.9900022,54.4249985 97.3499986,54.0350025 97.62,53.545 C97.8900013,53.0549976 98.025,52.4200039 98.025,51.64 C98.025,50.5599946 97.725003,49.6800034 97.125,49 C96.524997,48.3199966 95.5550067,47.98 94.215,47.98 L87.135,47.98 L87.135,55.45 L93.075,55.45 Z M109.155,47.98 L102.015,47.98 L102.015,45.58 L119.145,45.58 L119.145,47.98 L112.005,47.98 L112.005,67 L109.155,67 L109.155,47.98 Z" id="Report" fill="#101111"></path>
    </g>
</svg>